<svg width="270" height="91" viewBox="0 0 270 91" fill="none" xmlns="http://www.w3.org/2000/svg">
<g clip-path="url(#clip0_25_109)">
<path d="M248.499 0.000293321H21.5133C20.6859 0.000293321 19.8684 0.000293321 19.0432 0.00480595C18.3524 0.00931859 17.6672 0.0224278 16.9698 0.0334612C15.4547 0.0512901 13.9431 0.184581 12.4483 0.432175C10.9556 0.685159 9.50963 1.16211 8.15934 1.84689C6.81069 2.53746 5.57839 3.43478 4.50715 4.50632C3.43028 5.57483 2.53263 6.80989 1.84871 8.16401C1.16291 9.51543 0.687365 10.9636 0.438515 12.4585C0.187299 13.9515 0.0521173 15.4617 0.0341832 16.9756C0.0132446 17.6674 0.0110334 18.3615 0 19.0534V71.2065C0.0110334 71.9071 0.0132446 72.5858 0.0341832 73.2866C0.0521228 74.8004 0.187304 76.3106 0.438515 77.8035C0.686678 79.2993 1.16225 80.7483 1.84871 82.1002C2.53232 83.4499 3.4301 84.68 4.50715 85.7426C5.57433 86.8189 6.80742 87.7168 8.15934 88.4021C9.50962 89.0887 10.9554 89.5685 12.4483 89.8254C13.9434 90.071 15.4548 90.2043 16.9698 90.2243C17.6672 90.2396 18.3524 90.2484 19.0432 90.2484C19.8684 90.253 20.6859 90.253 21.5133 90.253H248.499C249.31 90.253 250.134 90.253 250.945 90.2484C251.632 90.2484 252.337 90.2396 253.025 90.2243C254.537 90.2054 256.045 90.072 257.537 89.8254C259.035 89.5667 260.486 89.087 261.843 88.4021C263.194 87.7164 264.426 86.8185 265.492 85.7426C266.566 84.6758 267.466 83.4467 268.158 82.1002C268.839 80.7473 269.31 79.2984 269.555 77.8035C269.806 76.3103 269.946 74.8005 269.974 73.2866C269.982 72.5858 269.982 71.9071 269.982 71.2065C270 70.3868 270 69.5716 270 68.7385V21.5168C270 20.6905 270 19.8709 269.982 19.0534C269.982 18.3615 269.982 17.6674 269.974 16.9756C269.946 15.4615 269.806 13.9516 269.555 12.4584C269.31 10.9644 268.839 9.51632 268.158 8.16392C266.765 5.44974 264.557 3.24042 261.843 1.84668C260.486 1.16358 259.035 0.686756 257.537 0.431972C256.046 0.183287 254.537 0.0499498 253.025 0.0331453C252.337 0.0221345 251.632 0.00891245 250.945 0.00451263C250.134 0 249.31 0.000293321 248.499 0.000293321Z" fill="#A6A6A6"/>
<path d="M19.0541 88.2785C18.3667 88.2785 17.6958 88.2697 17.0138 88.2543C15.6008 88.2359 14.1912 88.1129 12.7964 87.8863C11.4958 87.6623 10.236 87.2457 9.05828 86.6501C7.89141 86.0594 6.82713 85.285 5.90621 84.3563C4.97196 83.4386 4.19415 82.3742 3.60362 81.2054C3.00657 80.0289 2.59338 78.7679 2.37844 77.4662C2.14632 76.0675 2.02073 74.6533 2.00276 73.2356C1.98845 72.7598 1.96973 71.1754 1.96973 71.1754V19.0532C1.96973 19.0532 1.98967 17.4932 2.00287 17.0348C2.02008 15.6194 2.14493 14.2073 2.37636 12.8108C2.5917 11.5056 3.00521 10.2409 3.60258 9.06062C4.19095 7.89256 4.96443 6.82739 5.89305 5.9064C6.82063 4.97667 7.88832 4.1982 9.05718 3.59939C10.2321 3.00571 11.4897 2.59199 12.7876 2.37209C14.187 2.14322 15.6015 2.01948 17.0193 2.00191L19.0553 1.97437H250.934L252.994 2.00302C254.399 2.01972 255.8 2.14235 257.187 2.36987C258.498 2.59254 259.769 3.00915 260.957 3.606C263.299 4.81278 265.204 6.72202 266.406 9.06613C266.994 10.2383 267.401 11.4927 267.614 12.7866C267.848 14.1946 267.979 15.6177 268.006 17.0448C268.012 17.6837 268.012 18.3701 268.012 19.0532C268.03 19.8993 268.03 20.7047 268.03 21.5166V68.7383C268.03 69.558 268.03 70.3579 268.012 71.1643C268.012 71.8981 268.012 72.5702 268.004 73.262C267.977 74.6636 267.848 76.0613 267.618 77.4441C267.407 78.7551 266.996 80.026 266.4 81.2121C265.805 82.3683 265.031 83.4235 264.108 84.3387C263.186 85.2723 262.12 86.0514 260.951 86.6458C259.765 87.246 258.497 87.6642 257.187 87.8863C255.792 88.1141 254.383 88.2371 252.969 88.2543C252.309 88.2697 251.617 88.2785 250.945 88.2785L248.499 88.283L19.0541 88.2785Z" fill="black"/>
<path d="M55.8864 45.8048C55.9107 43.9216 56.4109 42.075 57.3406 40.4371C58.2703 38.7991 59.5991 37.4229 61.2036 36.4365C60.1843 34.9808 58.8397 33.7828 57.2764 32.9377C55.7132 32.0926 53.9744 31.6236 52.1983 31.5681C48.4094 31.1704 44.7362 33.8353 42.8055 33.8353C40.8373 33.8353 37.8646 31.6075 34.6635 31.6734C32.593 31.7403 30.575 32.3424 28.8064 33.4211C27.0377 34.4997 25.5786 36.0181 24.5712 37.8283C20.2075 45.3834 23.4624 56.4869 27.6425 62.5938C29.7339 65.5843 32.1781 68.9246 35.3763 68.8062C38.506 68.6764 39.6748 66.8105 43.4526 66.8105C47.1953 66.8105 48.2919 68.8062 51.555 68.7308C54.9133 68.6763 57.0291 65.7271 59.0471 62.7084C60.5498 60.5776 61.7061 58.2227 62.4732 55.7307C60.5221 54.9055 58.8571 53.5243 57.6858 51.7592C56.5145 49.9941 55.8887 47.9232 55.8864 45.8048Z" fill="white"/>
<path d="M49.7227 27.5517C51.5538 25.3536 52.4559 22.5283 52.2374 19.6758C49.44 19.9696 46.8559 21.3066 45.0001 23.4204C44.0928 24.453 43.3978 25.6544 42.955 26.9557C42.5122 28.2571 42.3303 29.633 42.4195 31.0047C43.8188 31.0192 45.203 30.7159 46.4681 30.1178C47.7331 29.5196 48.8459 28.6423 49.7227 27.5517Z" fill="white"/>
<path d="M95.4472 61.2358H84.7672L82.2024 68.809H77.6787L87.7947 40.79H92.4946L102.611 68.809H98.0098L95.4472 61.2358ZM85.8733 57.7411H94.339L90.1657 45.4503H90.0489L85.8733 57.7411Z" fill="white"/>
<path d="M124.458 58.596C124.458 64.9441 121.06 69.0226 115.932 69.0226C114.634 69.0906 113.342 68.7914 112.205 68.1593C111.068 67.5272 110.133 66.5878 109.505 65.4486H109.408V75.5668H105.215V48.3808H109.274V51.7785H109.351C110.007 50.6448 110.959 49.7103 112.104 49.0743C113.25 48.4384 114.546 48.1249 115.855 48.1671C121.04 48.1671 124.458 52.2655 124.458 58.596ZM120.148 58.596C120.148 54.4601 118.01 51.7411 114.749 51.7411C111.545 51.7411 109.39 54.5174 109.39 58.596C109.39 62.712 111.545 65.4685 114.749 65.4685C118.01 65.4685 120.148 62.7693 120.148 58.596Z" fill="white"/>
<path d="M146.942 58.596C146.942 64.9441 143.544 69.0226 138.417 69.0226C137.118 69.0905 135.826 68.7913 134.689 68.1593C133.553 67.5272 132.617 66.5878 131.989 65.4486H131.892V75.5668H127.699V48.3808H131.758V51.7785H131.835C132.492 50.6448 133.443 49.7103 134.588 49.0743C135.734 48.4384 137.03 48.1249 138.34 48.1671C143.524 48.1671 146.942 52.2655 146.942 58.596ZM142.632 58.596C142.632 54.4601 140.495 51.7411 137.234 51.7411C134.03 51.7411 131.875 54.5174 131.875 58.596C131.875 62.712 134.03 65.4685 137.234 65.4685C140.495 65.4685 142.632 62.7693 142.632 58.596Z" fill="white"/>
<path d="M161.801 61.0021C162.112 63.7806 164.811 65.605 168.5 65.605C172.034 65.605 174.577 63.7805 174.577 61.2752C174.577 59.1004 173.043 57.7982 169.412 56.9058L165.781 56.031C160.636 54.7883 158.247 52.3822 158.247 48.4777C158.247 43.6433 162.46 40.3228 168.442 40.3228C174.363 40.3228 178.422 43.6433 178.558 48.4777H174.325C174.072 45.6815 171.761 43.9937 168.383 43.9937C165.005 43.9937 162.693 45.7014 162.693 48.1868C162.693 50.1677 164.17 51.3333 167.781 52.2256L170.868 52.9836C176.617 54.3431 179.006 56.6524 179.006 60.7507C179.006 65.9927 174.83 69.2758 168.189 69.2758C161.975 69.2758 157.78 66.0698 157.509 61.0019L161.801 61.0021Z" fill="white"/>
<path d="M188.055 43.5464V48.3807H191.94V51.7013H188.055V62.963C188.055 64.7126 188.833 65.5278 190.541 65.5278C191.002 65.5198 191.462 65.4874 191.92 65.4308V68.7316C191.152 68.875 190.372 68.94 189.591 68.9255C185.455 68.9255 183.842 67.372 183.842 63.4103V51.7013H180.872V48.3807H183.842V43.5464H188.055Z" fill="white"/>
<path d="M194.189 58.5959C194.189 52.1685 197.975 48.1296 203.878 48.1296C209.801 48.1296 213.569 52.1684 213.569 58.5959C213.569 65.041 209.821 69.0623 203.878 69.0623C197.937 69.0623 194.189 65.041 194.189 58.5959ZM209.296 58.5959C209.296 54.1869 207.276 51.5846 203.878 51.5846C200.48 51.5846 198.462 54.2067 198.462 58.5959C198.462 63.0226 200.48 65.6051 203.878 65.6051C207.276 65.6051 209.296 63.0226 209.296 58.5959Z" fill="white"/>
<path d="M217.026 48.3809H221.026V51.8579H221.123C221.393 50.7719 222.029 49.8123 222.924 49.1401C223.819 48.468 224.918 48.1244 226.036 48.1671C226.52 48.1654 227.001 48.2179 227.473 48.3236V52.2457C226.863 52.0593 226.227 51.9737 225.589 51.9923C224.98 51.9676 224.372 52.075 223.809 52.3071C223.245 52.5393 222.738 52.8907 222.323 53.3372C221.908 53.7837 221.594 54.3147 221.404 54.8939C221.213 55.473 221.151 56.0865 221.22 56.6922V68.8089H217.026L217.026 48.3809Z" fill="white"/>
<path d="M246.805 62.8089C246.241 66.5173 242.63 69.0623 238.009 69.0623C232.066 69.0623 228.378 65.0806 228.378 58.6929C228.378 52.2853 232.086 48.1296 237.833 48.1296C243.485 48.1296 247.039 52.0121 247.039 58.2059V59.6426H232.611V59.896C232.544 60.6478 232.638 61.4051 232.887 62.1178C233.135 62.8304 233.533 63.482 234.053 64.0293C234.572 64.5765 235.203 65.0069 235.901 65.2919C236.6 65.5769 237.352 65.7099 238.106 65.6822C239.097 65.775 240.091 65.5455 240.941 65.0278C241.791 64.5101 242.452 63.7319 242.824 62.8089L246.805 62.8089ZM232.631 56.712H242.843C242.881 56.036 242.779 55.3596 242.542 54.7251C242.306 54.0906 241.941 53.5117 241.471 53.0249C241 52.5381 240.434 52.1537 239.808 51.896C239.182 51.6383 238.51 51.5128 237.833 51.5273C237.15 51.5233 236.473 51.6545 235.841 51.9133C235.209 52.1722 234.635 52.5537 234.151 53.0357C233.668 53.5178 233.284 54.0908 233.023 54.7218C232.762 55.3528 232.629 56.0292 232.631 56.712Z" fill="white"/>
<path d="M85.3483 19.6998C86.2274 19.6368 87.1095 19.7696 87.9311 20.0887C88.7527 20.4078 89.4931 20.9053 90.0992 21.5452C90.7052 22.1852 91.1616 22.9516 91.4355 23.7893C91.7094 24.6271 91.794 25.5151 91.6832 26.3895C91.6832 30.6906 89.3586 33.1629 85.3483 33.1629H80.4854V19.6998H85.3483ZM82.5764 31.259H85.1147C85.7429 31.2965 86.3716 31.1935 86.9549 30.9575C87.5382 30.7214 88.0616 30.3583 88.4869 29.8945C88.9122 29.4306 89.2287 28.8778 89.4135 28.2762C89.5982 27.6747 89.6464 27.0395 89.5547 26.4169C89.6397 25.7968 89.5866 25.1655 89.3991 24.5684C89.2115 23.9712 88.8942 23.4229 88.4699 22.9628C88.0456 22.5027 87.5247 22.1421 86.9446 21.9069C86.3646 21.6717 85.7397 21.5677 85.1147 21.6024H82.5764V31.259Z" fill="white"/>
<path d="M103.141 30.4194C102.869 31.348 102.278 32.1512 101.474 32.6886C100.669 33.2259 99.7007 33.4632 98.7386 33.3588C98.0692 33.3765 97.404 33.2483 96.7892 32.9831C96.1743 32.7179 95.6246 32.3221 95.178 31.8231C94.7315 31.3242 94.3988 30.734 94.2032 30.0936C94.0076 29.4532 93.9537 28.778 94.0453 28.1146C93.9561 27.4493 94.011 26.7725 94.2062 26.1302C94.4013 25.4879 94.7322 24.895 95.1764 24.3917C95.6206 23.8884 96.1677 23.4864 96.7808 23.2129C97.3938 22.9394 98.0585 22.8008 98.7298 22.8066C101.557 22.8066 103.262 24.738 103.262 27.9284V28.6281H96.088V28.7405C96.0566 29.1133 96.1034 29.4886 96.2256 29.8423C96.3477 30.1959 96.5424 30.5202 96.7971 30.7942C97.0519 31.0683 97.3611 31.2861 97.7049 31.4336C98.0488 31.5812 98.4197 31.6553 98.7938 31.6511C99.2734 31.7087 99.7594 31.6223 100.19 31.403C100.62 31.1837 100.976 30.8413 101.211 30.4194L103.141 30.4194ZM96.0878 27.1451H101.22C101.245 26.8042 101.199 26.4616 101.084 26.1396C100.969 25.8176 100.788 25.5232 100.552 25.2753C100.316 25.0275 100.032 24.8316 99.716 24.7003C99.4002 24.5691 99.0605 24.5053 98.7187 24.5132C98.3719 24.5088 98.0278 24.5739 97.7066 24.7047C97.3853 24.8354 97.0935 25.0292 96.8484 25.2745C96.6032 25.5197 96.4096 25.8116 96.279 26.1329C96.1484 26.4542 96.0833 26.7984 96.0878 27.1451Z" fill="white"/>
<path d="M109.668 22.8066C111.953 22.8066 113.446 23.8698 113.643 25.6612H111.719C111.534 24.9153 110.805 24.4394 109.668 24.4394C108.548 24.4394 107.698 24.9704 107.698 25.7637C107.698 26.3706 108.211 26.753 109.313 27.0053L111.001 27.3964C112.933 27.8448 113.839 28.6755 113.839 30.1683C113.839 32.0809 112.056 33.3589 109.63 33.3589C107.213 33.3589 105.637 32.2671 105.459 30.4669H107.466C107.639 30.8953 107.951 31.2533 108.352 31.4832C108.753 31.7132 109.219 31.8018 109.676 31.7349C110.926 31.7349 111.814 31.1754 111.814 30.3633C111.814 29.7574 111.338 29.3651 110.32 29.1228L108.548 28.7118C106.616 28.2546 105.721 27.3876 105.721 25.876C105.721 24.0747 107.372 22.8066 109.668 22.8066Z" fill="white"/>
<path d="M123.192 26.3233C123.064 25.7965 122.752 25.3328 122.312 25.0163C121.871 24.6998 121.332 24.5514 120.792 24.598C119.113 24.598 118.086 25.8848 118.086 28.0497C118.086 30.252 119.122 31.5675 120.792 31.5675C121.327 31.6295 121.866 31.4939 122.308 31.1863C122.75 30.8788 123.064 30.4203 123.192 29.8973H125.142C125.013 30.9261 124.487 31.8638 123.677 32.5105C122.866 33.1572 121.835 33.4616 120.803 33.3589C120.124 33.3803 119.448 33.2531 118.823 32.9861C118.198 32.7191 117.639 32.3187 117.185 31.813C116.731 31.3074 116.392 30.7086 116.194 30.0585C115.995 29.4085 115.941 28.7229 116.035 28.0498C115.946 27.3816 116.003 26.702 116.204 26.0583C116.404 25.4147 116.743 24.8226 117.196 24.3233C117.649 23.8241 118.205 23.4297 118.827 23.1678C119.448 22.9058 120.119 22.7826 120.792 22.8067C121.833 22.7109 122.869 23.0248 123.681 23.6815C124.494 24.3383 125.018 25.2862 125.142 26.3234L123.192 26.3233Z" fill="white"/>
<path d="M127.132 30.2894C127.132 28.4605 128.494 27.4062 130.911 27.2564L133.663 27.0977V26.2208C133.663 25.1477 132.953 24.5417 131.583 24.5417C130.463 24.5417 129.688 24.9527 129.465 25.671H127.524C127.729 23.9259 129.371 22.8065 131.675 22.8065C134.222 22.8065 135.659 24.0746 135.659 26.2208V33.1627H133.729V31.7349H133.57C133.248 32.247 132.796 32.6646 132.26 32.9448C131.724 33.2251 131.123 33.358 130.519 33.3301C130.092 33.3744 129.661 33.3289 129.253 33.1965C128.845 33.0641 128.47 32.8476 128.151 32.5611C127.831 32.2746 127.576 31.9245 127.4 31.5332C127.225 31.1419 127.134 30.7182 127.132 30.2894ZM133.663 29.4212V28.5718L131.182 28.7305C129.783 28.8241 129.148 29.3 129.148 30.1957C129.148 31.1102 129.941 31.6423 131.032 31.6423C131.352 31.6746 131.674 31.6424 131.981 31.5474C132.288 31.4524 132.573 31.2967 132.818 31.0895C133.064 30.8823 133.265 30.6278 133.41 30.3412C133.555 30.0546 133.641 29.7417 133.663 29.4212ZM130.472 21.3038L132.814 18.0945H135.166L132.543 21.3038H130.472Z" fill="white"/>
<path d="M138.799 23.0027H140.729V24.5605H140.879C141.095 24.0197 141.477 23.5613 141.97 23.2512C142.463 22.941 143.041 22.795 143.622 22.8341C143.922 22.8301 144.222 22.8581 144.517 22.9178V24.8966C144.149 24.818 143.774 24.7774 143.397 24.7754C143.067 24.7457 142.733 24.7856 142.419 24.8923C142.105 24.9991 141.816 25.1705 141.572 25.3954C141.328 25.6203 141.133 25.8939 141.001 26.1985C140.869 26.5031 140.802 26.8319 140.804 27.164V33.1628H138.799L138.799 23.0027Z" fill="white"/>
<path d="M146.359 34.1796H148.412C148.581 34.9167 149.429 35.3926 150.782 35.3926C152.453 35.3926 153.442 34.5994 153.442 33.2564V31.3064H153.292C152.978 31.8522 152.518 32.3005 151.965 32.6017C151.412 32.9029 150.786 33.0452 150.157 33.0129C147.563 33.0129 145.958 31.0078 145.958 27.966C145.958 24.868 147.581 22.8342 150.176 22.8342C150.821 22.8117 151.46 22.9669 152.023 23.2828C152.585 23.5988 153.05 24.0633 153.367 24.6256H153.526V23.0027H155.447V33.2464C155.447 35.5699 153.627 37.044 150.754 37.044C148.215 37.0442 146.573 35.906 146.359 34.1796ZM153.479 27.956C153.479 25.9321 152.433 24.6355 150.725 24.6355C149 24.6355 148.03 25.9322 148.03 27.956C148.03 29.981 149 31.2777 150.725 31.2777C152.444 31.2777 153.479 29.9909 153.479 27.956Z" fill="white"/>
<path d="M158.062 30.2895C158.062 28.4606 159.424 27.4063 161.841 27.2565L164.593 27.0978V26.2209C164.593 25.1478 163.884 24.5418 162.513 24.5418C161.394 24.5418 160.618 24.9528 160.396 25.6711H158.455C158.66 23.926 160.301 22.8066 162.606 22.8066C165.153 22.8066 166.59 24.0747 166.59 26.2209V33.1628H164.66V31.735H164.501C164.179 32.2471 163.727 32.6646 163.191 32.9449C162.654 33.2252 162.054 33.3581 161.449 33.3302C161.023 33.3745 160.592 33.329 160.184 33.1966C159.776 33.0641 159.4 32.8477 159.081 32.5612C158.762 32.2747 158.507 31.9246 158.331 31.5333C158.156 31.142 158.064 30.7183 158.062 30.2895ZM164.593 29.4213V28.5719L162.112 28.7306C160.713 28.8242 160.079 29.3001 160.079 30.1958C160.079 31.1102 160.872 31.6424 161.963 31.6424C162.282 31.6747 162.605 31.6425 162.912 31.5475C163.219 31.4525 163.503 31.2968 163.749 31.0896C163.994 30.8823 164.196 30.6279 164.341 30.3413C164.486 30.0547 164.572 29.7418 164.593 29.4213Z" fill="white"/>
<path d="M169.822 19.0364H171.827V33.1626H169.822V19.0364Z" fill="white"/>
<path d="M174.614 28.0782C174.551 27.4106 174.627 26.7369 174.839 26.1005C175.05 25.464 175.393 24.8789 175.844 24.3825C176.295 23.8862 176.845 23.4896 177.458 23.2182C178.072 22.9468 178.735 22.8066 179.406 22.8066C180.077 22.8066 180.74 22.9468 181.353 23.2182C181.967 23.4896 182.517 23.8862 182.968 24.3825C183.419 24.8789 183.761 25.464 183.973 26.1005C184.185 26.7369 184.261 27.4106 184.197 28.0782C184.262 28.7466 184.187 29.4212 183.976 30.0587C183.764 30.6961 183.422 31.2824 182.971 31.7797C182.52 32.277 181.969 32.6744 181.355 32.9464C180.741 33.2184 180.077 33.3589 179.406 33.3589C178.734 33.3589 178.07 33.2184 177.456 32.9464C176.842 32.6744 176.292 32.277 175.841 31.7797C175.389 31.2824 175.047 30.6961 174.836 30.0587C174.625 29.4212 174.549 28.7466 174.614 28.0782ZM182.135 28.0782C182.135 25.8759 181.145 24.588 179.409 24.588C177.666 24.588 176.686 25.8759 176.686 28.0783C176.686 30.2982 177.666 31.5762 179.409 31.5762C181.145 31.5762 182.135 30.2894 182.135 28.0782Z" fill="white"/>
<path d="M200.993 30.4194C200.72 31.348 200.13 32.1512 199.325 32.6886C198.52 33.2259 197.552 33.4632 196.59 33.3588C195.921 33.3765 195.256 33.2483 194.641 32.9831C194.026 32.7179 193.476 32.3221 193.03 31.8231C192.583 31.3242 192.25 30.734 192.055 30.0936C191.859 29.4532 191.805 28.778 191.897 28.1146C191.808 27.4493 191.863 26.7725 192.058 26.1302C192.253 25.4879 192.584 24.895 193.028 24.3917C193.472 23.8884 194.019 23.4864 194.632 23.2129C195.245 22.9394 195.91 22.8008 196.581 22.8066C199.408 22.8066 201.114 24.738 201.114 27.9284V28.6281H193.939V28.7405C193.908 29.1133 193.955 29.4886 194.077 29.8423C194.199 30.1959 194.394 30.5202 194.649 30.7942C194.903 31.0683 195.213 31.2861 195.556 31.4336C195.9 31.5812 196.271 31.6553 196.645 31.6511C197.125 31.7087 197.611 31.6223 198.041 31.403C198.472 31.1837 198.827 30.8413 199.062 30.4194L200.993 30.4194ZM193.939 27.1451H199.071C199.096 26.8042 199.05 26.4616 198.935 26.1396C198.82 25.8176 198.639 25.5232 198.404 25.2753C198.168 25.0275 197.883 24.8316 197.567 24.7003C197.252 24.5691 196.912 24.5053 196.57 24.5132C196.223 24.5088 195.879 24.5739 195.558 24.7047C195.237 24.8354 194.945 25.0291 194.7 25.2744C194.455 25.5197 194.261 25.8116 194.13 26.1329C194 26.4542 193.935 26.7984 193.939 27.1451Z" fill="white"/>
<path d="M203.806 23.0025H205.736V24.6165H205.886C206.14 24.0368 206.569 23.5509 207.112 23.2264C207.656 22.9019 208.287 22.7551 208.918 22.8064C209.412 22.7692 209.908 22.8438 210.37 23.0245C210.832 23.2052 211.247 23.4875 211.584 23.8504C211.922 24.2133 212.174 24.6476 212.321 25.121C212.468 25.5944 212.507 26.0949 212.434 26.5853V33.1624H210.429V27.0888C210.429 25.456 209.72 24.6441 208.237 24.6441C207.901 24.6284 207.566 24.6856 207.255 24.8115C206.943 24.9375 206.662 25.1293 206.432 25.3739C206.202 25.6184 206.027 25.9099 205.92 26.2284C205.812 26.5468 205.775 26.8847 205.811 27.2188V33.1625H203.806V23.0025Z" fill="white"/>
<path d="M229.639 30.4194C229.367 31.348 228.776 32.1512 227.972 32.6886C227.167 33.2259 226.199 33.4632 225.237 33.3588C224.567 33.3765 223.902 33.2483 223.287 32.9831C222.672 32.7179 222.123 32.3221 221.676 31.8231C221.23 31.3242 220.897 30.734 220.701 30.0936C220.506 29.4532 220.452 28.778 220.543 28.1146C220.454 27.4493 220.509 26.7725 220.704 26.1302C220.899 25.4879 221.23 24.895 221.674 24.3917C222.119 23.8884 222.666 23.4864 223.279 23.2129C223.892 22.9394 224.557 22.8008 225.228 22.8066C228.055 22.8066 229.76 24.738 229.76 27.9284V28.6281H222.586V28.7405C222.554 29.1133 222.601 29.4886 222.723 29.8423C222.846 30.1959 223.04 30.5202 223.295 30.7942C223.55 31.0683 223.859 31.2861 224.203 31.4336C224.547 31.5812 224.918 31.6553 225.292 31.6511C225.771 31.7087 226.257 31.6223 226.688 31.403C227.118 31.1837 227.474 30.8413 227.709 30.4194L229.639 30.4194ZM222.586 27.1451H227.718C227.743 26.8042 227.697 26.4616 227.582 26.1396C227.467 25.8176 227.286 25.5232 227.05 25.2753C226.815 25.0275 226.53 24.8316 226.214 24.7003C225.898 24.5691 225.559 24.5053 225.217 24.5132C224.87 24.5088 224.526 24.5739 224.205 24.7047C223.883 24.8354 223.592 25.0291 223.346 25.2744C223.101 25.5197 222.908 25.8116 222.777 26.1329C222.646 26.4542 222.581 26.7984 222.586 27.1451Z" fill="white"/>
<path d="M232.546 19.0364H234.551V33.1626H232.546V19.0364Z" fill="white"/>
</g>
<defs>
<clipPath id="clip0_25_109">
<rect width="270" height="90.2527" fill="white"/>
</clipPath>
</defs>
</svg>
